<svg width="50" height="50" viewBox="0 0 50 50" xmlns="http://www.w3.org/2000/svg">
<path fill-rule="evenodd" clip-rule="evenodd" d="M9.68926 0.130133C9.51299 0.220119 9.27129 0.430475 9.15215 0.597548C8.96748 0.856659 8.93066 1.05568 8.90254 1.9486L8.86963 2.99579L4.89863 3.02334C0.968945 3.0506 0.924609 3.05314 0.622363 3.26877C0.454492 3.38865 0.245703 3.63712 0.158496 3.8209C0.0138672 4.12583 0 5.85929 0 23.5687C0 41.2781 0.0138672 43.0116 0.158496 43.3165C0.245703 43.5003 0.454492 43.7487 0.622363 43.8686L0.927734 44.0865L13.3958 44.112L25.8639 44.1375L26.2342 44.6494C27.102 45.8489 28.6079 47.2202 30.0097 48.0872C31.4597 48.984 33.3702 49.6638 35.09 49.8949C37.6718 50.2418 40.651 49.7159 42.8632 48.5226C44.2247 47.7882 44.9625 47.2353 46.1008 46.0965C47.2391 44.9576 47.7917 44.2195 48.5258 42.8573C49.4604 41.1229 50 38.8946 50 36.7691C50 35.5835 49.7269 33.871 49.3594 32.7529C48.9008 31.3571 48.1376 29.8867 47.349 28.8795L47.0703 28.5235V16.3393C47.0703 5.30013 47.0554 4.12378 46.9118 3.8209C46.8246 3.63712 46.6158 3.38865 46.448 3.26877C46.1457 3.05314 46.1017 3.0506 42.1631 3.02334L38.1836 2.99579V2.06105C38.1836 0.993249 38.0438 0.584456 37.5612 0.239952C37.3343 0.0780572 37.118 0.0220729 36.7188 0.0220729C36.3195 0.0220729 36.1032 0.0780572 35.8763 0.239952C35.3932 0.584749 35.2539 0.992956 35.2539 2.06418V3.00204H32.3242H29.3945V2.06418C29.3945 0.992956 29.2553 0.584749 28.7722 0.239952C28.5452 0.0780572 28.3289 0.0220729 27.9297 0.0220729C27.5305 0.0220729 27.3142 0.0780572 27.0872 0.239952C26.6041 0.584749 26.4648 0.992956 26.4648 2.06418V3.00204H23.5352H20.6055V2.06418C20.6055 0.992956 20.4662 0.584749 19.9831 0.239952C19.7562 0.0780572 19.5398 0.0220729 19.1406 0.0220729C18.7414 0.0220729 18.5251 0.0780572 18.2981 0.239952C17.815 0.584749 17.6758 0.992956 17.6758 2.06418V3.00204H14.7461H11.8164V2.06418C11.8164 0.999502 11.6768 0.584261 11.206 0.248844C10.8178 -0.0276583 10.1074 -0.0832518 9.68926 0.130133ZM8.88672 6.82216C8.88672 7.84121 9.03271 8.25753 9.50908 8.59754C9.73604 8.75943 9.95234 8.81542 10.3516 8.81542C10.7508 8.81542 10.9671 8.75943 11.194 8.59754C11.6704 8.25753 11.8164 7.84121 11.8164 6.82216V5.93316H14.7461H17.6758V6.82216C17.6758 7.84121 17.8218 8.25753 18.2981 8.59754C18.5251 8.75943 18.7414 8.81542 19.1406 8.81542C19.5398 8.81542 19.7562 8.75943 19.9831 8.59754C20.4595 8.25753 20.6055 7.84121 20.6055 6.82216V5.93316H23.5352H26.4648V6.82216C26.4648 7.84121 26.6108 8.25753 27.0872 8.59754C27.3142 8.75943 27.5305 8.81542 27.9297 8.81542C28.3289 8.81542 28.5452 8.75943 28.7722 8.59754C29.2485 8.25753 29.3945 7.84121 29.3945 6.82216V5.93316H32.3242H35.2539V6.82216C35.2539 7.84121 35.3999 8.25753 35.8763 8.59754C36.1032 8.75943 36.3195 8.81542 36.7188 8.81542C37.118 8.81542 37.3343 8.75943 37.5612 8.59754C38.0376 8.25753 38.1836 7.84121 38.1836 6.82216V5.93316H41.1621H44.1406V8.86427V11.7954H23.5352H2.92969V8.86427V5.93316H5.9082H8.88672V6.82216ZM44.1406 20.2468C44.1406 23.2829 44.1262 25.767 44.1085 25.767C44.0908 25.767 43.7282 25.5684 43.3028 25.3256C42.2596 24.7302 40.7929 24.1708 39.5508 23.8945C38.6907 23.7032 38.2499 23.6666 36.8164 23.6669C35.5544 23.6672 34.899 23.7121 34.3106 23.8389C31.7701 24.3866 29.5867 25.5145 27.8407 27.1813C27.389 27.6126 26.7433 28.3128 26.4058 28.7375L25.7922 29.5096L23.8379 29.4881C22.1745 29.4697 21.8319 29.491 21.5356 29.6317C21.3442 29.7226 21.0896 29.9345 20.9697 30.1024C20.8079 30.3295 20.752 30.5459 20.752 30.9453C20.752 31.3448 20.8079 31.5612 20.9697 31.7882C21.3376 32.3041 21.7006 32.4109 23.086 32.4109C24.0057 32.4109 24.3162 32.4418 24.3156 32.533C24.3152 32.6002 24.2296 32.9359 24.1253 33.2789C24.0211 33.622 23.8835 34.2265 23.8197 34.6223L23.7037 35.342H22.7797C21.7233 35.342 21.3131 35.4832 20.9697 35.9647C20.8079 36.1917 20.752 36.4082 20.752 36.8076C20.752 37.207 20.8079 37.4234 20.9697 37.6505C21.3131 38.1319 21.7233 38.2731 22.7797 38.2731H23.7037L23.8197 38.9928C23.8835 39.3886 24.0211 39.9931 24.1253 40.3362C24.2296 40.6793 24.3152 41.015 24.3156 41.0821C24.3162 41.179 22.113 41.2042 13.623 41.2042H2.92969V27.9654V14.7265H23.5352H44.1406V20.2468ZM9.68926 17.9178C9.51299 18.0048 9.27129 18.2126 9.15215 18.3796C8.9915 18.605 8.93555 18.8223 8.93555 19.2209C8.93555 19.6203 8.9915 19.8367 9.15332 20.0638C9.54922 20.6189 9.83779 20.6864 11.8164 20.6864C13.795 20.6864 14.0836 20.6189 14.4795 20.0638C14.6413 19.8367 14.6973 19.6203 14.6973 19.2209C14.6973 18.8215 14.6413 18.6051 14.4795 18.378C14.0825 17.8213 13.7969 17.755 11.8017 17.7576C10.3515 17.7593 9.94863 17.7899 9.68926 17.9178ZM21.5057 17.9178C21.3294 18.0048 21.0877 18.2126 20.9686 18.3796C20.8079 18.605 20.752 18.8223 20.752 19.2209C20.752 19.6203 20.8079 19.8367 20.9697 20.0638C21.3656 20.6189 21.6542 20.6864 23.6328 20.6864C25.6114 20.6864 25.9 20.6189 26.2959 20.0638C26.4577 19.8367 26.5137 19.6203 26.5137 19.2209C26.5137 18.8215 26.4577 18.6051 26.2959 18.378C25.8989 17.8213 25.6133 17.755 23.6181 17.7576C22.1679 17.7593 21.765 17.7899 21.5057 17.9178ZM33.2244 17.9178C33.0481 18.0048 32.8064 18.2126 32.6873 18.3796C32.5267 18.605 32.4707 18.8223 32.4707 19.2209C32.4707 19.6203 32.5267 19.8367 32.6885 20.0638C33.0844 20.6189 33.3729 20.6864 35.3516 20.6864C37.3302 20.6864 37.6187 20.6189 38.0146 20.0638C38.1765 19.8367 38.2324 19.6203 38.2324 19.2209C38.2324 18.8215 38.1765 18.6051 38.0146 18.378C37.6177 17.8213 37.332 17.755 35.3368 17.7576C33.8866 17.7593 33.4838 17.7899 33.2244 17.9178ZM9.68926 23.78C9.51299 23.867 9.27129 24.0748 9.15215 24.2419C8.9915 24.4673 8.93555 24.6846 8.93555 25.0831C8.93555 25.4825 8.9915 25.6989 9.15332 25.926C9.54922 26.4812 9.83779 26.5487 11.8164 26.5487C13.795 26.5487 14.0836 26.4812 14.4795 25.926C14.6413 25.6989 14.6973 25.4825 14.6973 25.0831C14.6973 24.6837 14.6413 24.4673 14.4795 24.2402C14.0825 23.6835 13.7969 23.6173 11.8017 23.6198C10.3515 23.6216 9.94863 23.6521 9.68926 23.78ZM21.5057 23.78C21.3294 23.867 21.0877 24.0748 20.9686 24.2419C20.8079 24.4673 20.752 24.6846 20.752 25.0831C20.752 25.4825 20.8079 25.6989 20.9697 25.926C21.3656 26.4812 21.6542 26.5487 23.6328 26.5487C25.6114 26.5487 25.9 26.4812 26.2959 25.926C26.4577 25.6989 26.5137 25.4825 26.5137 25.0831C26.5137 24.6837 26.4577 24.4673 26.2959 24.2402C25.8989 23.6835 25.6133 23.6173 23.6181 23.6198C22.1679 23.6216 21.765 23.6521 21.5057 23.78ZM37.9908 26.6499C39.1144 26.7874 40.1207 27.0722 41.0931 27.528C42.2535 28.0722 43.1569 28.7028 44.037 29.5834C44.917 30.4638 45.5478 31.3681 46.0903 32.5271C46.5795 33.5719 46.8406 34.5274 46.983 35.7931C47.1812 37.5552 46.8643 39.4349 46.0903 41.0881C45.5478 42.247 44.917 43.1514 44.037 44.0317C43.1571 44.9121 42.2532 45.5432 41.0948 46.086C40.0505 46.5754 39.0955 46.8367 37.8304 46.9791C36.0691 47.1774 34.1903 46.8603 32.538 46.086C31.3796 45.5432 30.4757 44.9121 29.5958 44.0317C28.7158 43.1514 28.0851 42.247 27.5425 41.0881C27.0533 40.0432 26.7922 39.0878 26.6498 37.822C26.4517 36.0599 26.7686 34.1802 27.5425 32.5271C27.7516 32.0805 28.1268 31.4079 28.3763 31.0324C28.9569 30.1584 30.1705 28.9443 31.044 28.3633C32.4011 27.4606 33.9948 26.8513 35.498 26.6602C36.4702 26.5367 37.046 26.5343 37.9908 26.6499ZM9.68926 29.6423C9.51299 29.7292 9.27129 29.937 9.15215 30.1041C8.9915 30.3295 8.93555 30.5468 8.93555 30.9453C8.93555 31.3448 8.9915 31.5612 9.15332 31.7882C9.54922 32.3434 9.83779 32.4109 11.8164 32.4109C13.795 32.4109 14.0836 32.3434 14.4795 31.7882C14.6413 31.5612 14.6973 31.3448 14.6973 30.9453C14.6973 30.5459 14.6413 30.3295 14.4795 30.1024C14.0825 29.5457 13.7969 29.4795 11.8017 29.482C10.3515 29.4838 9.94863 29.5144 9.68926 29.6423ZM36.1541 29.6367C35.9778 29.7267 35.7361 29.937 35.617 30.1041C35.403 30.4043 35.4004 30.4507 35.4004 33.8765C35.4004 37.3079 35.4027 37.3482 35.6182 37.6505C36.0502 38.2564 36.161 38.2731 39.7461 38.2731C43.3312 38.2731 43.442 38.2564 43.874 37.6505C44.0358 37.4234 44.0918 37.207 44.0918 36.8076C44.0918 36.4082 44.0358 36.1917 43.874 35.9647C43.4597 35.3836 43.2433 35.342 40.6347 35.342H38.2812V32.9874C38.2812 30.3867 38.2384 30.1598 37.6708 29.7554C37.2826 29.4789 36.5723 29.4233 36.1541 29.6367ZM9.68926 35.5045C9.51299 35.5914 9.27129 35.7993 9.15215 35.9663C8.9915 36.1917 8.93555 36.409 8.93555 36.8076C8.93555 37.207 8.9915 37.4234 9.15332 37.6505C9.54922 38.2056 9.83779 38.2731 11.8164 38.2731C13.795 38.2731 14.0836 38.2056 14.4795 37.6505C14.6413 37.4234 14.6973 37.207 14.6973 36.8076C14.6973 36.4082 14.6413 36.1917 14.4795 35.9647C14.0825 35.408 13.7969 35.3417 11.8017 35.3443C10.3515 35.346 9.94863 35.3766 9.68926 35.5045Z" />
</svg>
