<svg width="50" height="50" viewBox="0 0 50 50" xmlns="http://www.w3.org/2000/svg">
<path fill-rule="evenodd" clip-rule="evenodd" d="M6.72331 0.167627C5.84839 0.353626 4.40126 0.983364 3.62578 1.51556C2.96771 1.96721 1.88805 3.08291 1.42651 3.7883C1.19785 4.13772 0.852253 4.79747 0.658554 5.2544C-0.0296992 6.87815 0.000190897 6.11441 0.000190897 22.062V36.4045L0.220264 36.7313C0.698212 37.4409 1.62266 37.658 2.25777 37.2098C2.43975 37.0812 4.58177 35.3146 7.01772 33.2838L11.4468 29.5916H11.9621H12.4774L12.5308 32.2062C12.576 34.423 12.6157 34.9471 12.7913 35.6515C13.0606 36.7319 13.719 38.0678 14.405 38.9258C14.7059 39.3021 15.2473 39.8627 15.608 40.1716C16.3919 40.8426 17.9135 41.6321 18.9989 41.9307C19.7725 42.1436 19.8764 42.1462 29.23 42.1973L38.6797 42.2489L43.1494 45.9734C45.6078 48.0218 47.7693 49.7751 47.9529 49.8694C48.3708 50.0844 49.0017 50.0286 49.4053 49.741C49.5648 49.6273 49.7675 49.382 49.8559 49.1957C50.0032 48.8852 50.0143 47.5764 49.99 33.4333L49.9635 18.0094L49.6891 17.1298C49.2223 15.6332 48.3703 14.2505 47.2966 13.247C46.2646 12.2826 44.7292 11.4803 43.2873 11.1522C42.8402 11.0505 41.8377 10.9878 40.0734 10.9516L37.5093 10.8987V9.79735C37.5093 8.32216 37.3506 6.85987 37.1034 6.0586C36.5744 4.34298 35.4675 2.75685 34.0338 1.65963C33.3797 1.1591 32.2428 0.592209 31.3066 0.299869L30.4275 0.0253182L18.9989 0.00645444C8.22504 -0.011432 7.52184 -0.00224442 6.72331 0.167627ZM30.2062 3.09748C30.6119 3.20128 31.2233 3.42696 31.5649 3.59878C32.3948 4.01662 33.4713 5.10886 33.8788 5.94669C34.4924 7.20802 34.4812 7.04411 34.4812 14.784C34.4812 22.5244 34.493 22.3526 33.878 23.6295C33.4577 24.502 32.328 25.6149 31.414 26.0568C30.1486 26.6684 30.3864 26.6559 20.0459 26.6578C12.2256 26.6591 10.5881 26.6824 10.3267 26.7956C10.1538 26.8704 8.42997 28.2539 6.49591 29.8699L2.97943 32.808L2.95462 20.444C2.92707 6.68648 2.90002 7.30547 3.5872 5.94268C4.29831 4.5324 5.77611 3.39324 7.32619 3.06053C7.84614 2.94881 9.90807 2.92282 18.7147 2.91636C29.0362 2.90894 29.498 2.91627 30.2062 3.09748ZM17.3955 6.43236C15.8481 6.83778 14.5434 7.90549 13.8783 9.3106C13.5339 10.0381 13.3743 10.7096 13.3635 11.4773C13.3575 11.8933 13.4098 12.1618 13.5396 12.3824C13.7977 12.8209 14.2722 13.0899 14.7881 13.0899C15.6167 13.0899 16.1552 12.5861 16.2648 11.7085C16.3567 10.9724 16.4871 10.5994 16.803 10.1696C17.2185 9.60421 17.9692 9.24502 18.7275 9.24864C19.3814 9.25176 19.7396 9.36553 20.1989 9.71622C20.6385 10.0517 20.9711 10.5851 21.0981 11.1583C21.3189 12.155 20.8292 13.2523 19.9451 13.7415C19.7184 13.867 19.2171 14.0167 18.8312 14.074C18.2255 14.1639 18.0755 14.2286 17.734 14.5471L17.3384 14.9161L17.3071 16.2673C17.2774 17.5496 17.2875 17.6358 17.5048 17.9582C17.7996 18.3958 18.4903 18.6978 18.9841 18.6051C19.649 18.4803 20.2199 17.7825 20.2199 17.0947C20.2199 16.8641 20.2719 16.7961 20.4886 16.7426C21.0204 16.6115 22.0074 15.9747 22.5646 15.4032C23.5417 14.401 24.1233 12.985 24.124 11.6075C24.1243 10.8737 23.8897 9.93663 23.5133 9.16917C22.8689 7.85516 21.3444 6.69108 19.8543 6.37518C18.9702 6.18772 18.2668 6.20404 17.3955 6.43236ZM42.8773 14.0974C43.8436 14.3548 44.6447 14.8217 45.3832 15.5578C46.0704 16.2429 46.4202 16.8011 46.8262 17.8607C47.0328 18.3997 47.0331 18.4175 47.0599 31.8641C47.0745 39.269 47.0633 45.3277 47.0349 45.3277C47.0064 45.3277 45.4049 44.0119 43.4758 42.4036C41.5467 40.7952 39.8836 39.434 39.78 39.3785C39.6551 39.3116 36.3128 39.267 29.8813 39.2462L20.1711 39.2149L19.4874 38.9876C18.1878 38.5558 17.2896 37.91 16.5689 36.889C16.335 36.5577 16.0171 35.9789 15.8623 35.6026L15.5807 34.9184L15.5491 32.255L15.5173 29.5916H22.6463C30.2227 29.5916 30.4647 29.5789 31.7954 29.1111C32.1176 28.9979 32.7207 28.7078 33.1359 28.4665L33.8907 28.0278H37.4694C40.9676 28.0278 41.0566 28.023 41.4276 27.8143C41.9173 27.5389 42.2467 26.8999 42.1634 26.3866C42.0938 25.9572 41.8538 25.6126 41.4175 25.3155C41.1053 25.1028 41.0187 25.0956 38.8021 25.0956C36.6639 25.0956 36.5133 25.0841 36.5626 24.9245C36.5916 24.8304 36.7338 24.4701 36.8786 24.1236C37.0233 23.7771 37.2126 23.1088 37.2991 22.6386L37.4566 21.7836L39.332 21.7536C41.0475 21.7261 41.2304 21.7064 41.4769 21.522C41.8873 21.215 42.1095 20.8665 42.1638 20.4444C42.229 19.9365 41.8786 19.2701 41.4156 19.0215C41.1218 18.8639 40.8448 18.8402 39.2935 18.8402H37.5093V16.3967V13.9532L39.9269 13.9544C41.7271 13.9553 42.4805 13.9918 42.8773 14.0974ZM17.9969 20.5932C17.8217 20.7033 17.5912 20.9366 17.4844 21.1118C17.2526 21.4921 17.2295 22.1547 17.4341 22.5505C17.9001 23.4524 19.1297 23.581 19.8154 22.7996C20.2071 22.3531 20.2902 21.887 20.0775 21.3297C19.8628 20.7673 19.4549 20.4772 18.8126 20.4298C18.4348 20.402 18.2386 20.4413 17.9969 20.5932ZM21.198 31.5733C20.9502 31.7045 20.7035 31.9343 20.5965 32.1337C20.2256 32.8258 20.4559 33.6814 21.1226 34.0881C21.4347 34.2786 21.6346 34.2824 31.3166 34.2827L41.1922 34.2831L41.5219 34.0609C41.949 33.7729 42.2499 33.0761 42.1583 32.5875C42.0765 32.151 41.6738 31.6601 41.2533 31.4843C40.9912 31.3747 39.2124 31.3509 31.2763 31.3509H21.6182L21.198 31.5733Z" />
</svg>
