<svg width="26" height="17" viewBox="0 0 26 17" xmlns="http://www.w3.org/2000/svg">
<path d="M7.88625 0.25H9.56125C9.79878 0.250073 10.0274 0.340305 10.201 0.502466C10.3746 0.664626 10.4801 0.886623 10.4963 1.1236C10.5125 1.36058 10.4381 1.59487 10.2882 1.77912C10.1383 1.96338 9.92406 2.08387 9.68875 2.11625L9.5625 2.125H7.88688C7.66935 2.12492 7.45856 2.20048 7.29062 2.33875L7.19688 2.42812L4.60438 5.24875L8.93688 5.24937C9.62965 5.2494 10.298 5.5051 10.8139 5.96748C11.3298 6.42985 11.6569 7.06636 11.7325 7.755H14.2669C14.3425 7.06626 14.6697 6.42966 15.1857 5.96727C15.7017 5.50488 16.3702 5.24924 17.0631 5.24937L21.4094 5.24875L18.8056 2.42687C18.6585 2.26729 18.4606 2.16369 18.2456 2.13375L18.1156 2.125H16.4331C16.1956 2.12477 15.9671 2.03443 15.7937 1.87222C15.6202 1.71001 15.5148 1.48802 15.4987 1.25109C15.4826 1.01416 15.557 0.779947 15.7069 0.595755C15.8568 0.411563 16.071 0.291119 16.3063 0.25875L16.4338 0.25H18.1156C18.8197 0.25001 19.4981 0.514065 20.0169 0.99L20.1825 1.155L24.735 6.08937C24.7975 6.1575 24.8488 6.2325 24.8875 6.31125C25.27 6.79187 25.4988 7.4 25.4988 8.06187V12.4325C25.4988 13.5099 25.0707 14.5433 24.3089 15.3051C23.547 16.067 22.5137 16.495 21.4363 16.495H18.3125C17.2351 16.495 16.2017 16.067 15.4399 15.3051C14.678 14.5433 14.25 13.5099 14.25 12.4325L14.2487 9.63H11.7475L11.7487 12.4325C11.7487 13.5099 11.3207 14.5433 10.5589 15.3051C9.797 16.067 8.76369 16.495 7.68625 16.495H4.5625C3.48506 16.495 2.45175 16.067 1.68988 15.3051C0.928012 14.5433 0.5 13.5099 0.5 12.4325V8.0625C0.5 7.36062 0.7575 6.71875 1.1825 6.22563L1.23 6.15687L1.28438 6.09125L5.815 1.16C6.29247 0.640224 6.94792 0.318969 7.65125 0.26L7.88625 0.250625V0.25Z" />
</svg>
