<svg width="10" height="10" viewBox="0 0 10 10" xmlns="http://www.w3.org/2000/svg">
<path d="M5 0.903615C6.3253 0.903615 6.50603 0.903615 7.04819 0.903615C7.53012 0.903615 7.77109 1.0241 7.95181 1.08434C8.19277 1.20482 8.3735 1.26506 8.55422 1.44578C8.73494 1.62651 8.85542 1.80723 8.91566 2.04819C8.97591 2.22892 9.03615 2.46988 9.09639 2.95181C9.09639 3.49398 9.09639 3.61446 9.09639 5C9.09639 6.38554 9.09639 6.50603 9.09639 7.04819C9.09639 7.53012 8.97591 7.77109 8.91566 7.95181C8.79518 8.19277 8.73494 8.3735 8.55422 8.55422C8.3735 8.73494 8.19277 8.85542 7.95181 8.91566C7.77109 8.97591 7.53012 9.03615 7.04819 9.09639C6.50603 9.09639 6.38554 9.09639 5 9.09639C3.61446 9.09639 3.49398 9.09639 2.95181 9.09639C2.46988 9.09639 2.22892 8.97591 2.04819 8.91566C1.80723 8.79518 1.62651 8.73494 1.44578 8.55422C1.26506 8.3735 1.14458 8.19277 1.08434 7.95181C1.0241 7.77109 0.963856 7.53012 0.903615 7.04819C0.903615 6.50603 0.903615 6.38554 0.903615 5C0.903615 3.61446 0.903615 3.49398 0.903615 2.95181C0.903615 2.46988 1.0241 2.22892 1.08434 2.04819C1.20482 1.80723 1.26506 1.62651 1.44578 1.44578C1.62651 1.26506 1.80723 1.14458 2.04819 1.08434C2.22892 1.0241 2.46988 0.963856 2.95181 0.903615C3.49398 0.903615 3.6747 0.903615 5 0.903615ZM5 0C3.61446 0 3.49398 0 2.95181 0C2.40964 0 2.04819 0.120482 1.74699 0.240964C1.44578 0.361446 1.14458 0.542169 0.843374 0.843374C0.542169 1.14458 0.421687 1.38554 0.240964 1.74699C0.120482 2.04819 0.060241 2.40964 0 2.95181C0 3.49398 0 3.6747 0 5C0 6.38554 0 6.50603 0 7.04819C0 7.59036 0.120482 7.95181 0.240964 8.25301C0.361446 8.55422 0.542169 8.85542 0.843374 9.15663C1.14458 9.45783 1.38554 9.57831 1.74699 9.75904C2.04819 9.87952 2.40964 9.93976 2.95181 10C3.49398 10 3.6747 10 5 10C6.3253 10 6.50603 10 7.04819 10C7.59036 10 7.95181 9.87952 8.25301 9.75904C8.55422 9.63856 8.85542 9.45783 9.15663 9.15663C9.45783 8.85542 9.57831 8.61446 9.75904 8.25301C9.87952 7.95181 9.93976 7.59036 10 7.04819C10 6.50603 10 6.3253 10 5C10 3.6747 10 3.49398 10 2.95181C10 2.40964 9.87952 2.04819 9.75904 1.74699C9.63856 1.44578 9.45783 1.14458 9.15663 0.843374C8.85542 0.542169 8.61446 0.421687 8.25301 0.240964C7.95181 0.120482 7.59036 0.060241 7.04819 0C6.50603 0 6.38554 0 5 0Z" />
<path d="M5 2.40964C3.55422 2.40964 2.40964 3.55422 2.40964 5C2.40964 6.44578 3.55422 7.59036 5 7.59036C6.44578 7.59036 7.59036 6.44578 7.59036 5C7.59036 3.55422 6.44578 2.40964 5 2.40964ZM5 6.68675C4.09639 6.68675 3.31325 5.96386 3.31325 5C3.31325 4.09639 4.03615 3.31325 5 3.31325C5.90362 3.31325 6.68675 4.03615 6.68675 5C6.68675 5.90362 5.90362 6.68675 5 6.68675Z" />
<path d="M7.6506 2.95181C7.9833 2.95181 8.25301 2.6821 8.25301 2.3494C8.25301 2.0167 7.9833 1.74699 7.6506 1.74699C7.3179 1.74699 7.04819 2.0167 7.04819 2.3494C7.04819 2.6821 7.3179 2.95181 7.6506 2.95181Z" />
</svg>
