<svg width="20" height="20" viewBox="0 0 20 20" xmlns="http://www.w3.org/2000/svg">
<path d="M16.6667 3.3335H3.33341C2.41675 3.3335 1.66675 4.0835 1.66675 5.00016V15.0002C1.66675 15.9168 2.41675 16.6668 3.33341 16.6668H16.6667C17.5834 16.6668 18.3334 15.9168 18.3334 15.0002V5.00016C18.3334 4.0835 17.5834 3.3335 16.6667 3.3335ZM16.3334 6.87516L10.8834 10.2835C10.3417 10.6252 9.65841 10.6252 9.11675 10.2835L3.66675 6.87516C3.45841 6.74183 3.33341 6.51683 3.33341 6.27516C3.33341 5.71683 3.94175 5.3835 4.41675 5.67516L10.0001 9.16683L15.5834 5.67516C16.0584 5.3835 16.6667 5.71683 16.6667 6.27516C16.6667 6.51683 16.5417 6.74183 16.3334 6.87516Z" />
</svg>
