<svg width="20" height="20" viewBox="0 0 20 20" xmlns="http://www.w3.org/2000/svg">
<path d="M14.4833 8.99167L12.65 7.15833C12.4167 6.925 12.35 6.6 12.4417 6.30833C12.75 5.375 12.9167 4.375 12.9167 3.33333C12.9167 2.875 13.2917 2.5 13.75 2.5H16.6667C17.125 2.5 17.5 2.875 17.5 3.33333C17.5 11.1583 11.1583 17.5 3.33333 17.5C2.875 17.5 2.5 17.125 2.5 16.6667V13.7583C2.5 13.3 2.875 12.925 3.33333 12.925C4.36667 12.925 5.375 12.7583 6.30833 12.45C6.6 12.35 6.93333 12.425 7.15833 12.65L8.99167 14.4833C11.35 13.275 13.2833 11.35 14.4833 8.99167Z" />
</svg>
