<svg width="20" height="20" viewBox="0 0 20 20" xmlns="http://www.w3.org/2000/svg">
<path d="M10.0001 1.6665C6.77508 1.6665 4.16675 4.27484 4.16675 7.49984C4.16675 10.9748 7.85008 15.7665 9.36675 17.5915C9.70008 17.9915 10.3084 17.9915 10.6417 17.5915C12.1501 15.7665 15.8334 10.9748 15.8334 7.49984C15.8334 4.27484 13.2251 1.6665 10.0001 1.6665ZM10.0001 9.58317C8.85008 9.58317 7.91675 8.64984 7.91675 7.49984C7.91675 6.34984 8.85008 5.4165 10.0001 5.4165C11.1501 5.4165 12.0834 6.34984 12.0834 7.49984C12.0834 8.64984 11.1501 9.58317 10.0001 9.58317Z" />
</svg>
