<svg width="50" height="50" viewBox="0 0 50 50" xmlns="http://www.w3.org/2000/svg">
<path fill-rule="evenodd" clip-rule="evenodd" d="M20.0277 0.141472C18.4216 0.409233 16.5975 1.13779 15.1654 2.0836C13.9025 2.91756 12.4814 4.35512 11.6928 5.59644C10.7788 7.03528 10.1212 8.7369 9.86033 10.3389C9.47651 12.6949 9.83304 15.2617 10.8499 17.4639C11.6319 19.1573 13.3525 21.2496 14.7445 22.1997C15.0528 22.4101 15.3051 22.6083 15.3051 22.6402C15.3051 22.672 15.0069 22.8031 14.6423 22.9315C10.6231 24.3471 6.93962 27.076 4.29707 30.5958C3.57028 31.5639 2.53105 33.2815 2.07261 34.2723C0.959641 36.6781 0.322299 39.0283 0.0858615 41.5989C0.0196824 42.3188 -0.0135053 44.1029 0.00515053 45.946C0.0359817 48.998 0.0419712 49.0792 0.255728 49.3774C0.376205 49.5454 0.625898 49.7542 0.810591 49.8415C1.11723 49.9862 2.96927 50 22.0801 50C41.1909 50 43.0429 49.9862 43.3496 49.8415C43.5343 49.7542 43.784 49.5454 43.9045 49.3774C44.1214 49.0749 44.1234 49.0383 44.1234 45.5064C44.1234 43.5453 44.0877 41.5835 44.0441 41.1468L43.9647 40.3529L44.6963 39.9533C45.5377 39.4939 46.6873 38.6086 47.283 37.9613C48.4442 36.6996 49.3018 35.1528 49.7386 33.5327C49.9718 32.6676 50 32.3886 50 30.9509C50 29.5251 49.9707 29.2307 49.7463 28.3994C49.6068 27.8827 49.3356 27.1218 49.1437 26.7087C47.8465 23.9154 45.3451 21.8196 42.349 21.016C41.4774 20.7822 41.2024 20.7545 39.754 20.7545C38.3173 20.7545 38.027 20.7832 37.1894 21.0083C35.4914 21.4647 34.0445 22.2555 32.752 23.4338L32.0888 24.0384L31.3802 23.7174C30.9905 23.5408 30.2371 23.2343 29.706 23.0363L28.7404 22.6764L29.4114 22.2C30.9048 21.1399 32.5174 19.181 33.3103 17.4639C34.0575 15.8456 34.4506 14.047 34.4509 12.2438C34.4513 9.95252 33.7575 7.62717 32.4674 5.59644C31.9658 4.80693 30.9629 3.65744 30.2407 3.04445C29.3837 2.31697 28.4707 1.70193 27.5937 1.26146C26.6909 0.808092 25.1137 0.307638 24.0439 0.13522C22.9112 -0.0474556 21.1441 -0.0447203 20.0277 0.141472ZM24.3279 3.20769C25.7362 3.54793 27.2886 4.36509 28.382 5.34187C29.6662 6.48911 30.8068 8.39421 31.2274 10.0947C31.3976 10.7825 31.4449 11.2608 31.4449 12.2926C31.4449 13.9887 31.2182 14.9589 30.4747 16.4443C29.5189 18.3544 28.173 19.6934 26.2531 20.6444C24.76 21.3841 23.7848 21.6097 22.0801 21.6097C20.3753 21.6097 19.4001 21.3841 17.9071 20.6444C15.9872 19.6934 14.6413 18.3544 13.6855 16.4443C12.942 14.9589 12.7153 13.9887 12.7153 12.2926C12.7153 11.262 12.7625 10.7844 12.9312 10.1067C13.1707 9.14513 13.7212 7.90147 14.2746 7.07201C15.1608 5.74375 16.4644 4.62894 17.9917 3.89326C19.5401 3.14741 20.721 2.90056 22.4238 2.96669C23.0271 2.99014 23.8676 3.09652 24.3279 3.20769ZM41.5705 23.8658C41.8945 23.9486 42.5794 24.2211 43.0924 24.4714C43.879 24.8552 44.165 25.0656 44.9173 25.814C45.6691 26.5619 45.8814 26.8475 46.2673 27.6296C46.8977 28.9073 47.0597 29.586 47.0597 30.9509C47.0597 32.3158 46.8977 32.9946 46.2673 34.2723C45.88 35.0572 45.6717 35.3365 44.9173 36.0834C44.2429 36.7511 43.8322 37.0657 43.2341 37.3729C42.799 37.5964 42.0921 37.8784 41.6631 37.9997C41.0575 38.1708 40.6308 38.2201 39.754 38.2198C38.3821 38.2193 37.6993 38.0579 36.4156 37.4309C35.6295 37.047 35.3425 36.8358 34.5908 36.0878C33.839 35.3399 33.6267 35.0544 33.2408 34.2723C32.6103 32.9946 32.4483 32.3158 32.4483 30.9509C32.4483 29.586 32.6103 28.9073 33.2408 27.6296C33.6283 26.8442 33.8358 26.5659 34.5908 25.8192C35.222 25.1949 35.6892 24.8301 36.1889 24.5715C37.084 24.108 37.5687 23.9333 38.4285 23.764C39.2518 23.6018 40.7238 23.6496 41.5705 23.8658ZM23.8616 24.7036C24.4209 24.7599 25.3203 24.8941 25.8603 25.002C26.9627 25.222 28.779 25.7997 29.7609 26.2427L30.4123 26.5365L30.1307 27.2583C29.9757 27.6552 29.7536 28.4396 29.6372 29.0014C29.4617 29.8473 29.4335 30.2412 29.4732 31.2928C29.5288 32.7654 29.8116 34.0028 30.3644 35.1932C31.6624 37.9883 34.1749 40.092 37.159 40.8826C37.9897 41.1027 38.3472 41.1423 39.5752 41.1501L41.0164 41.1593L41.0776 41.4035C41.1113 41.5378 41.1644 42.8676 41.1955 44.3585L41.2523 47.0694H22.0801H2.9079L2.95905 44.3585C2.99941 42.2154 3.05263 41.4125 3.21317 40.5243C3.75045 37.5514 4.83063 34.9697 6.54431 32.5628C8.98822 29.1302 12.8383 26.4518 16.9372 25.3329C18.0644 25.0252 19.6327 24.7412 20.6073 24.6684C21.6113 24.5933 22.9056 24.6074 23.8616 24.7036ZM39.0881 26.7119C38.9109 26.8019 38.6679 27.0122 38.5481 27.1792C38.3644 27.4356 38.3251 27.6395 38.2968 28.4843L38.2633 29.4856H37.3788C36.3644 29.4856 35.9444 29.6328 35.6036 30.1082C35.4409 30.3352 35.3846 30.5516 35.3846 30.9509C35.3846 31.3503 35.4409 31.5667 35.6036 31.7937C35.9453 32.2702 36.3637 32.4162 37.3878 32.4162H38.2812V33.3051C38.2812 34.324 38.428 34.7402 38.907 35.0802C39.1351 35.2421 39.3526 35.298 39.754 35.298C40.1554 35.298 40.3729 35.2421 40.6011 35.0802C41.0801 34.7402 41.2269 34.324 41.2269 33.3051V32.4162H42.1203C43.1444 32.4162 43.5628 32.2702 43.9045 31.7937C44.0672 31.5667 44.1234 31.3503 44.1234 30.9509C44.1234 30.5516 44.0672 30.3352 43.9045 30.1082C43.5628 29.6317 43.1444 29.4856 42.1203 29.4856H41.2269V28.5968C41.2269 27.5843 41.0799 27.1612 40.6131 26.8306C40.2228 26.5541 39.5086 26.4985 39.0881 26.7119Z" />
</svg>
