<svg width="11" height="11" viewBox="0 0 11 11" xmlns="http://www.w3.org/2000/svg">
<path d="M8.96341 2.03125C7.97561 1.04687 6.65854 0.5 5.26829 0.5C2.37805 0.5 0.0365848 2.83333 0.0365848 5.71354C0.0365848 6.625 0.292683 7.53646 0.731707 8.30208L0 11L2.78049 10.2708C3.54878 10.6719 4.39024 10.8906 5.26829 10.8906C8.15854 10.8906 10.5 8.55729 10.5 5.67708C10.4634 4.32813 9.95122 3.01562 8.96341 2.03125ZM7.79268 7.57292C7.68293 7.86458 7.17073 8.15625 6.91463 8.19271C6.69512 8.22917 6.40244 8.22917 6.10976 8.15625C5.92683 8.08333 5.67073 8.01042 5.37805 7.86458C4.06098 7.31771 3.21951 6.00521 3.14634 5.89583C3.07317 5.82292 2.59756 5.20312 2.59756 4.54687C2.59756 3.89062 2.92683 3.59896 3.03658 3.45312C3.14634 3.30729 3.29268 3.30729 3.40244 3.30729C3.47561 3.30729 3.58536 3.30729 3.65854 3.30729C3.73171 3.30729 3.84146 3.27083 3.95122 3.52604C4.06098 3.78125 4.31707 4.4375 4.35366 4.47396C4.39024 4.54688 4.39024 4.61979 4.35366 4.69271C4.31707 4.76562 4.28049 4.83854 4.20732 4.91146C4.13414 4.98437 4.06097 5.09375 4.02439 5.13021C3.95122 5.20312 3.87805 5.27604 3.95122 5.38542C4.02439 5.53125 4.28049 5.93229 4.68293 6.29687C5.19512 6.73437 5.59756 6.88021 5.7439 6.95313C5.89024 7.02604 5.96341 6.98958 6.03658 6.91667C6.10975 6.84375 6.36585 6.55208 6.43902 6.40625C6.5122 6.26042 6.62195 6.29688 6.73171 6.33333C6.84146 6.36979 7.5 6.69792 7.60976 6.77083C7.7561 6.84375 7.82927 6.88021 7.86585 6.91667C7.90244 7.02604 7.90244 7.28125 7.79268 7.57292Z" />
</svg>
